<mxfile host="www.draw.io" modified="2019-11-22T01:38:06.687Z" agent="Mozilla/5.0 (Windows NT 10.0; Win64; x64) AppleWebKit/537.36 (KHTML, like Gecko) Chrome/78.0.3904.97 Safari/537.36" etag="xttYc8Teg9XtcufKvYQh" version="12.2.7" type="github" pages="1">
  <diagram name="Page-1" id="13e1069c-82ec-6db2-03f1-153e76fe0fe0">
    <mxGraphModel dx="1707" dy="923" grid="1" gridSize="10" guides="1" tooltips="1" connect="1" arrows="1" fold="1" page="1" pageScale="1" pageWidth="1100" pageHeight="850" background="#ffffff" math="0" shadow="0">
      <root>
        <mxCell id="0"/>
        <mxCell id="1" parent="0"/>
        <mxCell id="CZmCDaREYXnMbOSLX73U-16" value="1：下单" style="html=1;verticalAlign=bottom;startArrow=oval;startFill=1;endArrow=block;startSize=8;" edge="1" parent="1">
          <mxGeometry x="-0.0528" y="10" width="60" relative="1" as="geometry">
            <mxPoint x="120" y="220" as="sourcePoint"/>
            <mxPoint x="390" y="220" as="targetPoint"/>
            <mxPoint as="offset"/>
          </mxGeometry>
        </mxCell>
        <mxCell id="CZmCDaREYXnMbOSLX73U-1" value="用户" style="shape=umlActor;verticalLabelPosition=bottom;labelBackgroundColor=#ffffff;verticalAlign=top;html=1;" vertex="1" parent="1">
          <mxGeometry x="100" y="100" width="30" height="60" as="geometry"/>
        </mxCell>
        <mxCell id="CZmCDaREYXnMbOSLX73U-6" value="" style="html=1;points=[];perimeter=orthogonalPerimeter;" vertex="1" parent="1">
          <mxGeometry x="110" y="180" width="10" height="460" as="geometry"/>
        </mxCell>
        <mxCell id="CZmCDaREYXnMbOSLX73U-11" value="商城系统" style="shape=umlLifeline;perimeter=lifelinePerimeter;whiteSpace=wrap;html=1;container=1;collapsible=0;recursiveResize=0;outlineConnect=0;fillColor=#dae8fc;strokeColor=#6c8ebf;size=60;" vertex="1" parent="1">
          <mxGeometry x="340" y="100" width="110" height="540" as="geometry"/>
        </mxCell>
        <mxCell id="CZmCDaREYXnMbOSLX73U-21" value="" style="html=1;points=[];perimeter=orthogonalPerimeter;fillColor=#DAE8FC;strokeColor=#66B2FF;" vertex="1" parent="CZmCDaREYXnMbOSLX73U-11">
          <mxGeometry x="50" y="110" width="10" height="40" as="geometry"/>
        </mxCell>
        <mxCell id="CZmCDaREYXnMbOSLX73U-70" value="" style="html=1;points=[];perimeter=orthogonalPerimeter;strokeColor=#66B2FF;fillColor=#DAE8FC;" vertex="1" parent="CZmCDaREYXnMbOSLX73U-11">
          <mxGeometry x="55" y="370" width="10" height="30" as="geometry"/>
        </mxCell>
        <mxCell id="CZmCDaREYXnMbOSLX73U-12" value="支付中心" style="shape=umlLifeline;perimeter=lifelinePerimeter;whiteSpace=wrap;html=1;container=1;collapsible=0;recursiveResize=0;outlineConnect=0;size=60;fillColor=#d5e8d4;strokeColor=#82b366;" vertex="1" parent="1">
          <mxGeometry x="590" y="100" width="150" height="540" as="geometry"/>
        </mxCell>
        <mxCell id="CZmCDaREYXnMbOSLX73U-27" value="" style="html=1;points=[];perimeter=orthogonalPerimeter;strokeColor=#66B2FF;fillColor=#DAE8FC;" vertex="1" parent="CZmCDaREYXnMbOSLX73U-12">
          <mxGeometry x="70" y="110" width="10" height="40" as="geometry"/>
        </mxCell>
        <mxCell id="CZmCDaREYXnMbOSLX73U-40" value="" style="html=1;points=[];perimeter=orthogonalPerimeter;strokeColor=#66B2FF;fillColor=#DAE8FC;direction=west;" vertex="1" parent="CZmCDaREYXnMbOSLX73U-12">
          <mxGeometry x="70" y="180" width="10" height="20" as="geometry"/>
        </mxCell>
        <mxCell id="CZmCDaREYXnMbOSLX73U-56" value="" style="html=1;points=[];perimeter=orthogonalPerimeter;strokeColor=#66B2FF;fillColor=#DAE8FC;direction=west;" vertex="1" parent="CZmCDaREYXnMbOSLX73U-12">
          <mxGeometry x="70" y="250" width="10" height="20" as="geometry"/>
        </mxCell>
        <mxCell id="CZmCDaREYXnMbOSLX73U-59" value="" style="html=1;points=[];perimeter=orthogonalPerimeter;strokeColor=#66B2FF;fillColor=#DAE8FC;" vertex="1" parent="CZmCDaREYXnMbOSLX73U-12">
          <mxGeometry x="70" y="310" width="10" height="40" as="geometry"/>
        </mxCell>
        <mxCell id="CZmCDaREYXnMbOSLX73U-69" value="" style="html=1;points=[];perimeter=orthogonalPerimeter;strokeColor=#66B2FF;fillColor=#DAE8FC;" vertex="1" parent="CZmCDaREYXnMbOSLX73U-12">
          <mxGeometry x="70" y="370" width="10" height="30" as="geometry"/>
        </mxCell>
        <mxCell id="CZmCDaREYXnMbOSLX73U-26" value="支付渠道" style="shape=umlLifeline;perimeter=lifelinePerimeter;whiteSpace=wrap;html=1;container=1;collapsible=0;recursiveResize=0;outlineConnect=0;strokeColor=#66B2FF;fillColor=#DAE8FC;size=60;" vertex="1" parent="1">
          <mxGeometry x="850" y="100" width="110" height="540" as="geometry"/>
        </mxCell>
        <mxCell id="CZmCDaREYXnMbOSLX73U-30" value="" style="html=1;points=[];perimeter=orthogonalPerimeter;strokeColor=#66B2FF;fillColor=#DAE8FC;" vertex="1" parent="CZmCDaREYXnMbOSLX73U-26">
          <mxGeometry x="50" y="110" width="10" height="40" as="geometry"/>
        </mxCell>
        <mxCell id="CZmCDaREYXnMbOSLX73U-38" value="" style="html=1;points=[];perimeter=orthogonalPerimeter;strokeColor=#66B2FF;fillColor=#DAE8FC;direction=west;" vertex="1" parent="CZmCDaREYXnMbOSLX73U-26">
          <mxGeometry x="50" y="170" width="10" height="40" as="geometry"/>
        </mxCell>
        <mxCell id="CZmCDaREYXnMbOSLX73U-54" value="" style="html=1;points=[];perimeter=orthogonalPerimeter;strokeColor=#66B2FF;fillColor=#DAE8FC;direction=west;" vertex="1" parent="CZmCDaREYXnMbOSLX73U-26">
          <mxGeometry x="50" y="240" width="10" height="40" as="geometry"/>
        </mxCell>
        <mxCell id="CZmCDaREYXnMbOSLX73U-60" value="" style="html=1;points=[];perimeter=orthogonalPerimeter;strokeColor=#66B2FF;fillColor=#DAE8FC;" vertex="1" parent="CZmCDaREYXnMbOSLX73U-26">
          <mxGeometry x="50" y="310" width="10" height="40" as="geometry"/>
        </mxCell>
        <mxCell id="CZmCDaREYXnMbOSLX73U-31" value="" style="edgeStyle=orthogonalEdgeStyle;rounded=0;orthogonalLoop=1;jettySize=auto;html=1;" edge="1" parent="1" source="CZmCDaREYXnMbOSLX73U-27" target="CZmCDaREYXnMbOSLX73U-30">
          <mxGeometry relative="1" as="geometry">
            <Array as="points">
              <mxPoint x="770" y="240"/>
              <mxPoint x="770" y="240"/>
            </Array>
          </mxGeometry>
        </mxCell>
        <mxCell id="CZmCDaREYXnMbOSLX73U-35" value="" style="edgeStyle=orthogonalEdgeStyle;rounded=0;orthogonalLoop=1;jettySize=auto;html=1;" edge="1" parent="1" source="CZmCDaREYXnMbOSLX73U-21" target="CZmCDaREYXnMbOSLX73U-27">
          <mxGeometry relative="1" as="geometry">
            <mxPoint x="480" y="230" as="targetPoint"/>
          </mxGeometry>
        </mxCell>
        <mxCell id="CZmCDaREYXnMbOSLX73U-36" value="1.1：调用支付中心接口" style="text;html=1;resizable=0;points=[];autosize=1;align=left;verticalAlign=top;spacingTop=-4;" vertex="1" parent="1">
          <mxGeometry x="450" y="210" width="140" height="20" as="geometry"/>
        </mxCell>
        <mxCell id="CZmCDaREYXnMbOSLX73U-37" value="1.2：调用不同渠道接口" style="text;html=1;resizable=0;points=[];autosize=1;align=left;verticalAlign=top;spacingTop=-4;" vertex="1" parent="1">
          <mxGeometry x="720" y="220" width="140" height="20" as="geometry"/>
        </mxCell>
        <mxCell id="CZmCDaREYXnMbOSLX73U-41" value="" style="edgeStyle=orthogonalEdgeStyle;rounded=0;orthogonalLoop=1;jettySize=auto;html=1;" edge="1" parent="1" source="CZmCDaREYXnMbOSLX73U-38" target="CZmCDaREYXnMbOSLX73U-40">
          <mxGeometry relative="1" as="geometry"/>
        </mxCell>
        <mxCell id="CZmCDaREYXnMbOSLX73U-42" value="2：返回同步支付结果" style="text;html=1;resizable=0;points=[];autosize=1;align=left;verticalAlign=top;spacingTop=-4;" vertex="1" parent="1">
          <mxGeometry x="720" y="270" width="130" height="20" as="geometry"/>
        </mxCell>
        <mxCell id="CZmCDaREYXnMbOSLX73U-57" value="" style="edgeStyle=orthogonalEdgeStyle;rounded=0;orthogonalLoop=1;jettySize=auto;html=1;" edge="1" parent="1" source="CZmCDaREYXnMbOSLX73U-54" target="CZmCDaREYXnMbOSLX73U-56">
          <mxGeometry relative="1" as="geometry"/>
        </mxCell>
        <mxCell id="CZmCDaREYXnMbOSLX73U-58" value="3：返回异步支付结果" style="text;html=1;resizable=0;points=[];autosize=1;align=left;verticalAlign=top;spacingTop=-4;" vertex="1" parent="1">
          <mxGeometry x="720" y="340" width="130" height="20" as="geometry"/>
        </mxCell>
        <mxCell id="CZmCDaREYXnMbOSLX73U-61" value="" style="edgeStyle=orthogonalEdgeStyle;rounded=0;orthogonalLoop=1;jettySize=auto;html=1;" edge="1" parent="1" source="CZmCDaREYXnMbOSLX73U-59" target="CZmCDaREYXnMbOSLX73U-60">
          <mxGeometry relative="1" as="geometry">
            <Array as="points">
              <mxPoint x="810" y="410"/>
              <mxPoint x="810" y="410"/>
            </Array>
          </mxGeometry>
        </mxCell>
        <mxCell id="CZmCDaREYXnMbOSLX73U-62" value="4：调用查询结果查询交易状态" style="text;html=1;resizable=0;points=[];autosize=1;align=left;verticalAlign=top;spacingTop=-4;" vertex="1" parent="1">
          <mxGeometry x="720" y="390" width="180" height="20" as="geometry"/>
        </mxCell>
        <mxCell id="CZmCDaREYXnMbOSLX73U-68" value="4.1：返回交易信息" style="html=1;verticalAlign=bottom;endArrow=open;dashed=1;endSize=8;exitX=0;exitY=1;exitDx=0;exitDy=0;exitPerimeter=0;" edge="1" parent="1" source="CZmCDaREYXnMbOSLX73U-60">
          <mxGeometry x="0.1304" relative="1" as="geometry">
            <mxPoint x="740" y="450" as="sourcePoint"/>
            <mxPoint x="670" y="450" as="targetPoint"/>
            <Array as="points"/>
            <mxPoint as="offset"/>
          </mxGeometry>
        </mxCell>
        <mxCell id="CZmCDaREYXnMbOSLX73U-71" value="" style="edgeStyle=orthogonalEdgeStyle;rounded=0;orthogonalLoop=1;jettySize=auto;html=1;" edge="1" parent="1" source="CZmCDaREYXnMbOSLX73U-69" target="CZmCDaREYXnMbOSLX73U-70">
          <mxGeometry relative="1" as="geometry"/>
        </mxCell>
        <mxCell id="CZmCDaREYXnMbOSLX73U-72" value="5：回调通知商城系统(MQ)" style="text;html=1;resizable=0;points=[];autosize=1;align=left;verticalAlign=top;spacingTop=-4;" vertex="1" parent="1">
          <mxGeometry x="460" y="460" width="160" height="20" as="geometry"/>
        </mxCell>
      </root>
    </mxGraphModel>
  </diagram>
</mxfile>
